<svg xmlns="http://www.w3.org/2000/svg" viewBox="180 320 720 720">
  <path fill="#FFFFFF" d="M557.71,938.46c-37.21-6.11-69.12-18.67-69.31-18.07-.18.58,28.84,13.75,68.01,20.87,49.12,8.93,89.65,3.9,111.77.98,24.72-3.26,45.04-8.21,59.41-12.3-9.51,4.16-23.86,9.92-41.87,15.12-26.01,7.51-45.36,9.74-45.29,10.19.09.53,26.72-.83,58.3-9.38,44.25-11.98,73.88-30.72,72.89-29.95-17.01,13.21-42.87,30.66-77.22,44.13-65.98,25.87-125.57,22.28-125.45,24.06.11,1.57,36.28,3.2,78.65-4.23,43.59-7.65,77.81-22.09,100.54-33.66l20.02-12.29c-17.11,14.19-42.54,32.47-76.37,47.54-15.81,7.04-112.99,48.7-224.57,18.05-119.35-32.79-207.71-139.77-233.71-243.8-61.84-247.47,167.58-470.63,412.22-404.62l19.77,7.21c-14.58-3.63-36.14-8.12-62.66-10.37-28.55-2.42-52.23-1.34-52.25-.62-.02.69,21.93.6,52.76,5.19,17.36,2.59,31.47,5.75,40.87,8.09,0,0,0,0-.01,0-45.43-6.92-82.16-4.36-82.16-4.36-12.28.86-29.23,3.17-49.36,9.57,13.62-2.46,29.98-4.38,48.5-4.49,16.37-.1,31.01,1.23,43.49,3.08-16.81-.75-40.44-.45-68.08,4.52-42.26,7.6-72.18,22.27-72.08,22.57.09.25,21.31-9.12,52.42-12.55,7.59-.84,14.1-1.14,19.06-1.23-20.75,5.56-120.03,34.49-175.03,133.44-10.81,19.44-35.38,69.97-33.41,137.95,3.45,119.11,87.97,191.58,104.6,205.3,62.71,51.74,130.63,62.59,160.73,65.46-8.5.88-21.11,1.55-36.17-.16-26.49-3.02-46.81-11.86-46.94-11.51-.11.33,17.99,7.46,31.88,11.94,28.17,9.08,74.67,18.73,144.2,11.94-30.61,7.82-75.65,15.04-128.18,6.42Z"/>
  <path fill="#FFFFFF" d="M571.25,870.04c-.09-.03-.32-.07-.32-.13.04-.76,47.77,10.28,92.89-3.96,26.46-8.35,47.01-23.81,46.91-23.99-.06-.11-7.31,4.34-18.01,9.19,0,0-38.24,17.32-77.93,17.78-13.78.16-25.33-1.25-33.66-2.68,31.05.73,62.55-4.97,90.99-17.37,152.6-66.51,146.63-282.86,2.55-355.62-34.67-17.51-75.47-26.08-114.06-20.13-2.63.4,19.96-4.48,30.75-5.07,33.8-1.84,59.32,3.99,59.37,3.66.05-.32-23.24-7.44-52.37-8.48-41.43-1.48-75.6,10.03-98.58,20.53,17.75-12.93,38.84-21.05,59.9-27.15l21.45-4.77c-17.52,1.9-43.46,6.75-72.18,20.08-37.46,17.39-60.73,42.92-61.63,41.89-.91-1.04,19.05-24.8,48.26-44.61,39.74-26.95,80.7-35.84,109.38-39-14.48.08-33.2,1.51-54.39,6.66-21.65,5.26-39.26,12.8-52.31,19.52,28.26-23.34,63.78-37.78,100.11-43.21,88.89-13.28,175.21,30.2,222.6,104.87,57.47,90.55,43.17,206.02-25.78,285.85-54.33,62.9-143.62,89.53-223.93,66.13Z"/>
  <path fill="#FFFFFF" d="M716.32,659.39c.04,13.33-1.66,32.5-10.23,53.26-20.49,49.51-69.9,82.77-119.94,90.23-68.88,10.27-143.45-30.09-171.07-98.27-28.41-70.15,7.06-134.69,13.14-145.04.08-.11.13-.21.19-.33.06-.1.11-.21.17-.31-2.37,8.67-4.74,17.35-7.14,26.02-1.29,4.69-18.65,79.15,30.05,131.5,0,0,26.58,28.57,65.96,37.67,18.17,4.2,34.77,2.85,34.77,2.85,6.26-.51,12.7-1.59,19.29-3.37,44-11.82,85.39-52.09,85.36-98.75-.02-27.37-14.31-64.26-43.56-77.51-6.24-2.81-11.96-4.04-16.2-4.61,3.31-.33,7.01-.41,11.02,0,16.63,1.68,28.44,10.63,34.15,15.73-4.2-4.74-10.32-10.3-18.77-14.55-26.37-13.26-53.53-2.73-59.09-.44,3.12-2.03,7.59-4.59,13.24-6.75,18.63-7.08,35.58-4.17,35.6-4.46,0-.29-13.7-4.3-31.72-1.2-30.19,5.18-50.21,26.44-58.17,36.4-4.69,5.85-7.88,11.17-9.89,14.81.99-3.23,2.6-7.69,5.2-12.66,16.15-30.86,48.61-41.48,55.36-43.67,25.37-8.24,47.55-4.37,58.14-1.74-8.59-2.93-23.85-6.89-42.92-5.16-21.78,1.97-37.65,10.36-45.61,15.32,8.12-6.44,26.41-19.07,52.6-21.94,43.15-4.73,74.11,20.5,80.82,26.93,23.74,22.76,38.68,54.65,39.25,90.04Z"/>
</svg>
